<?xml version="1.0" encoding="UTF-8"?>
<svg id="Layer_1" xmlns="http://www.w3.org/2000/svg" version="1.1" viewBox="0 0 235.12 86.3">
  <!-- Generator: Adobe Illustrator 30.3.0, SVG Export Plug-In . SVG Version: 2.1.3 Build 182)  -->
  <g>
    <path d="M232.6,1.87c0,1.14-.74,1.94-1.9,1.9-5.18-.18-8.89,2.58-12,6.48l-4.87,6.1c-2.59,3.24-5.17,6.28-9.03,7.99-2.96,1.31-6.23,1.26-9.16-.14-4.28-2.05-6.89-5.55-9.76-9.16l-4.02-5.04c-1.01-1.27-2.1-2.37-3.36-3.39-2.4-1.95-5.31-2.94-8.41-2.84-1.1.04-1.83-.78-1.82-1.86,0-.52.13-1.03.46-1.39.37-.4.88-.5,1.46-.5,3.59-.04,7,.97,9.92,3.05,1.36.97,2.58,2.02,3.64,3.3l2.77,3.38,4.63,5.83c1.1,1.38,2.3,2.58,3.67,3.68.86.69,1.76,1.23,2.76,1.67,3.29,1.44,6.39.08,8.95-2.21,1.15-1.03,2.18-2.09,3.15-3.3l4.68-5.88,2.46-2.98c1.19-1.43,2.55-2.6,4.09-3.66C223.82.9,227.18-.03,230.7,0c1.13,0,1.89.67,1.9,1.87Z"/>
    <path d="M207.65,6.91c-3.88-4.1-10.18-4.22-14.22-.34-1.24,1.19-2.32,2.53-3.35,3.91l-2.33-3.05c1.04-1.37,2.1-2.66,3.37-3.81,2.43-2.2,5.4-3.47,8.66-3.6,3.79-.15,7.29,1.16,10.04,3.76,1.22,1.14,2.27,2.43,3.28,3.76l-2.34,2.99c-1.02-1.27-1.95-2.47-3.11-3.62Z"/>
    <path d="M232.6,25.73c0,1.04-.63,1.86-1.7,1.89-4.55.14-8.69-2.13-11.94-5.21-1.23-1.23-2.33-2.49-3.39-3.87l2.35-3.04c1.17,1.52,2.34,2.88,3.65,4.21,2.4,2.31,5.78,4.28,9.13,4.18,1.11-.03,1.9.67,1.9,1.84Z"/>
    <path d="M169.83,27.62c-1-.03-1.5-.87-1.56-1.74-.07-1.03.57-1.95,1.64-1.96,3.61-.05,6.58-1.7,9.19-4.13,1.33-1.33,2.5-2.71,3.65-4.2l2.34,3.05-2.93,3.4c-1.73,1.75-3.65,3.17-5.89,4.18-2.04.91-4.14,1.46-6.44,1.38Z"/>
  </g>
  <g>
    <path d="M0,35.91h11.68l-.21,29.03,9.68-29.03h7.68l-.53,29.14,10.1-29.14h11.57l-19.15,49.13h-9.15l-.32-27.88-9.89,27.88H2.21L0,35.91Z"/>
    <path d="M48.39,60.63c2.84-16.41,11.15-25.98,21.35-25.98s15.15,8.73,12.31,24.72c-.21,1.16-.63,3.16-1.26,4.94h-21.78c-.74,6.94.74,11.05,4.21,11.05,2.21,0,4.31-1.58,5.89-4.52l8.52,4.84c-4.31,6.63-10.52,10.62-16.73,10.62-10.83,0-15.36-9.47-12.52-25.67ZM72.06,56.21c1.05-7.36-.42-11.04-3.79-11.04-3.16,0-6,3.89-7.78,11.04h11.57Z"/>
    <path d="M86.79,60.53c2.84-15.88,9.99-25.88,18.62-25.88,4.21,0,7.26,2.52,8.42,7.26l1.05-6h11.47l-8.63,49.13h-11.47l1.16-6.94c-2.74,4.63-6.94,8.21-11.36,8.21-8.52,0-12.1-9.89-9.26-25.77ZM110.14,60.42c1.68-9.78.42-15.15-3.16-15.15s-6.84,5.37-8.52,15.15c-1.68,9.89-.32,15.25,3.26,15.25s6.73-5.37,8.42-15.25Z"/>
    <path d="M130.97,35.91h11.99l1.05,31.14,11.78-31.14h11.99l-22.09,49.13h-9.89l-4.84-49.13Z"/>
    <path d="M165.48,60.63c2.84-16.41,11.15-25.98,21.35-25.98s15.15,8.73,12.31,24.72c-.21,1.16-.63,3.16-1.26,4.94h-21.77c-.74,6.94.74,11.05,4.21,11.05,2.21,0,4.31-1.58,5.89-4.52l8.52,4.84c-4.31,6.63-10.52,10.62-16.73,10.62-10.83,0-15.36-9.47-12.52-25.67ZM189.15,56.21c1.05-7.36-.42-11.04-3.79-11.04-3.16,0-6,3.89-7.78,11.04h11.57Z"/>
    <path d="M209.66,35.91h11.36l-1.58,9.15c3.16-7.26,7.57-10.41,11.15-10.41,1.26,0,2.95.53,4.52,1.79l-4.52,12.52c-1.05-1.58-3.37-2.1-4.73-2.1-4.1,0-7.15,3.58-8.31,9.89l-4.94,28.3h-11.57l8.62-49.13Z"/>
  </g>
</svg>