<?xml version="1.0" encoding="UTF-8"?><svg id="a" xmlns="http://www.w3.org/2000/svg" viewBox="0 0 1457.38 138.86"><defs><style>.d{fill:#1a1a1a;}</style></defs><path class="d" d="M213.43,135.3V3.68h82.11v21.57h-58.47v38.02h51.12v21.57h-51.12v50.48h-23.64Z"/><path class="d" d="M327.48,135.3V3.68h23.64v110.06h51.28v21.57h-74.92Z"/><path class="d" d="M433.07,135.3V3.68h23.64v131.63h-23.64Z"/><path class="d" d="M491.53,69.49c0-38.02,30.67-68.53,72.36-68.53,20.61,0,35.62,5.91,45.53,12.14v25.4c-13.1-9.27-27.48-15.97-45.53-15.97-29.23,0-47.92,19.81-47.92,46.96s18.85,47.12,47.28,47.12c10.7,0,19.33-2.56,26.36-6.23v-23.48h-27.16v-20.13h49.84v56.23c-7.35,5.11-24.6,15.02-49.04,15.02-41.05,0-71.73-30.35-71.73-68.53Z"/><path class="d" d="M649.67,135.3V3.68h23.64v53.83h59.42V3.68h23.48v131.63h-23.48v-56.39h-59.42v56.39h-23.64Z"/><path class="d" d="M822.99,135.3V25.24h-36.58V3.68h96.96v21.57h-36.74v110.06h-23.64Z"/><path class="d" d="M913.56,135.3V3.68h42.01c44.57,0,71.88,30.19,71.88,65.81s-27.32,65.81-71.88,65.81h-42.01ZM937.2,114.06h18.37c30.19,0,47.6-19.49,47.6-44.57s-17.25-44.57-47.6-44.57h-18.37v89.14Z"/><path class="d" d="M1162.91,135.3h-29.39l-39.14-48.88h-8.47v48.88h-23.48V3.68h39.14c30.35,0,48.88,18.05,48.88,41.53,0,18.05-11.82,32.75-30.99,38.5l43.45,51.6ZM1085.91,24.44v42.01h15.5c16.45,0,24.92-9.58,24.92-20.93s-8.31-21.09-24.92-21.09h-15.5Z"/><path class="d" d="M1189.26,135.3V3.68h23.64v131.63h-23.64Z"/><path class="d" d="M1251.88,135.3V3.68h82.11v21.57h-58.47v38.02h51.12v21.57h-51.12v50.48h-23.64Z"/><path class="d" d="M1396.28,135.3V25.24h-36.58V3.68h96.96v21.57h-36.74v110.06h-23.64Z"/><rect class="d" x=".92" y="123.97" width="152.41" height="3.96"/><rect class="d" x="42.82" y="116.59" width="110.53" height="18.71"/><rect class="d" x=".92" y="95.74" width="152.41" height="3.96"/><rect class="d" x="23.27" y="88.37" width="130.08" height="18.71"/><rect class="d" x=".92" y="67.52" width="152.41" height="3.96"/><rect class="d" x="58.24" y="60.14" width="95.11" height="18.71"/><rect class="d" x=".92" y="39.29" width="152.41" height="3.96"/><rect class="d" x="93.21" y="31.91" width="60.14" height="18.71"/><rect class="d" x=".92" y="11.06" width="152.41" height="3.96"/><rect class="d" x="128.18" y="3.68" width="25.17" height="18.71"/></svg>