<?xml version="1.0" encoding="UTF-8"?><svg id="b" xmlns="http://www.w3.org/2000/svg" xmlns:xlink="http://www.w3.org/1999/xlink" viewBox="0 0 48 48"><defs><style>.g{fill:#52d6ca;}.h{fill:url(#c);}.i{fill:url(#d);}.j{fill:#fdca46;}.k{fill:url(#e);}.l{fill:url(#f);}</style><linearGradient id="c" x1="38.41" y1="17.51" x2="41.6" y2="19.31" gradientUnits="userSpaceOnUse"><stop offset="0" stop-color="#ba5a01"/><stop offset="1" stop-color="#f24601"/></linearGradient><linearGradient id="d" x1="16.7" y1="36.34" x2="22.67" y2="33.07" gradientUnits="userSpaceOnUse"><stop offset="0" stop-color="#209c6a"/><stop offset="1" stop-color="#104f48"/></linearGradient><linearGradient id="e" x1="15.18" y1="16.56" x2="20.82" y2="20.21" gradientUnits="userSpaceOnUse"><stop offset="0" stop-color="#04c2a2"/><stop offset="1" stop-color="#039e70"/></linearGradient><linearGradient id="f" x1="35.15" y1="19.05" x2="32.73" y2="23.1" gradientUnits="userSpaceOnUse"><stop offset="0" stop-color="#fc9702"/><stop offset=".49" stop-color="#ec861b"/><stop offset="1" stop-color="#d9723b"/></linearGradient></defs><path class="h" d="M38.56,21.47l6.84.4c.2.01.32-.21.2-.37l-5.14-6.7-1.89,6.67Z"/><path class="i" d="M19.49,41.87l.35-.61,1.68-9.98-2.64-3.19-13.16,11.69c-.15.13-.07.38.12.4l13.65,1.68Z"/><path class="k" d="M20.86,31.63l2.58-20.73-.42-.56c-.2-.27-.5-.45-.83-.52L2.63,6.14c-.21-.04-.35.19-.23.36l18.46,25.13Z"/><path class="l" d="M34.28,26.4l3.32.18.39-.18,1.76-7.97.71-3.64-7.61.22c-.29,0-.57.11-.79.29l-3.58,2.81,5.8,8.28Z"/><polygon class="g" points="21.35 25.7 21.6 25.92 34.7 26.54 33.62 24.86 29.47 19.12 23.22 10.6 22.76 13.99 21.35 25.7"/><path class="j" d="M21.35,25.7c-.46,4.03-1.39,12.15-1.86,16.16l18.5-15.46c-.29-.01-16.36-.69-16.64-.7Z"/></svg>