<?xml version="1.0" encoding="UTF-8"?><svg id="a" xmlns="http://www.w3.org/2000/svg" xmlns:xlink="http://www.w3.org/1999/xlink" viewBox="0 0 258.59 47.63"><defs><style>.g{fill:#52d6ca;}.h{fill:url(#c);}.i{fill:url(#d);}.j{fill:#303030;}.k{fill:#fdca46;}.l{fill:url(#e);}.m{fill:url(#b);}</style><linearGradient id="b" x1="47.82" y1="15.36" x2="52.02" y2="17.73" gradientUnits="userSpaceOnUse"><stop offset="0" stop-color="#ba5a01"/><stop offset="1" stop-color="#f24601"/></linearGradient><linearGradient id="c" x1="19.27" y1="40.12" x2="27.12" y2="35.82" gradientUnits="userSpaceOnUse"><stop offset="0" stop-color="#209c6a"/><stop offset="1" stop-color="#104f48"/></linearGradient><linearGradient id="d" x1="17.27" y1="14.1" x2="24.69" y2="18.9" gradientUnits="userSpaceOnUse"><stop offset="0" stop-color="#04c2a2"/><stop offset="1" stop-color="#039e70"/></linearGradient><linearGradient id="e" x1="43.54" y1="17.38" x2="40.35" y2="22.71" gradientUnits="userSpaceOnUse"><stop offset="0" stop-color="#fc9702"/><stop offset=".49" stop-color="#ec861b"/><stop offset="1" stop-color="#d9723b"/></linearGradient></defs><path class="m" d="M48.03,20.57l8.99.52c.26.02.42-.28.26-.49l-6.76-8.81-2.49,8.78Z"/><path class="h" d="M22.93,47.39l.46-.8,2.21-13.13-3.48-4.19-17.3,15.37c-.2.17-.09.5.16.53l17.95,2.21Z"/><path class="i" d="M24.74,33.93l3.4-27.27-.55-.74c-.27-.35-.65-.6-1.09-.68L.76.39c-.27-.05-.46.26-.3.48l24.28,33.06Z"/><path class="l" d="M42.39,27.05l4.36.23.52-.23,2.32-10.48.93-4.79-10.01.29c-.38.01-.74.14-1.04.38l-4.71,3.7,7.63,10.89Z"/><polygon class="g" points="25.38 26.13 25.71 26.42 42.95 27.23 41.52 25.02 36.06 17.47 27.85 6.26 27.24 10.72 25.38 26.13"/><path class="k" d="M25.38,26.13c-.6,5.3-1.83,15.98-2.45,21.26l24.34-20.34c-.39-.02-21.51-.91-21.89-.92Z"/><path class="j" d="M91.16,15.1l-10.65,26.86h-2.32l-10.39-34.22h4.39l7.75,25.31,10.01-25.31h2.71l10.39,25.44,8.07-25.44h4.26l-10.85,34.22h-2.32l-11.04-26.86Z"/><path class="j" d="M131.9,42.54c-8.59,0-16.08-4.65-16.08-17.62,0-11.94,7.1-17.75,15.3-17.75,9.43,0,13.88,6.52,13.88,18.14h-24.66c.26,10.14,5.81,13.04,11.88,13.04,4.2,0,7.55-.9,10.72-2.84l-.65,4.71c-2.71,1.55-5.88,2.32-10.39,2.32ZM120.54,21.55h20.27c-.9-7.04-4.07-10.39-9.68-10.39-4.84,0-9.55,2.91-10.59,10.39Z"/><path class="j" d="M168.89,38.34c-2.32,2.39-5.94,4.26-10.46,4.26-6.46,0-11.3-2.84-11.3-10.01s6.59-11.49,21.5-12.46c-.19-6.26-3.74-8.72-9.04-8.72-3.68,0-6.78,1.03-10.14,3.75l.9-5.17c3.03-2,5.88-2.84,9.68-2.84,7.81,0,13.11,4.07,13.11,12.98v21.82h-3.42l-.84-3.62ZM159.46,38.73c3.23,0,6.91-1.55,9.17-4v-11.1c-11.62.84-16.98,3.74-16.98,8.84,0,4.13,2.65,6.26,7.81,6.26Z"/><path class="j" d="M192.2,41.95h-1.94l-14.91-34.22h4.91l11.17,25.76,11.56-25.76h4.65l-15.43,34.22Z"/><path class="j" d="M223.12,42.54c-8.59,0-16.08-4.65-16.08-17.62,0-11.94,7.1-17.75,15.3-17.75,9.43,0,13.88,6.52,13.88,18.14h-24.66c.26,10.14,5.81,13.04,11.88,13.04,4.2,0,7.55-.9,10.72-2.84l-.65,4.71c-2.71,1.55-5.88,2.32-10.39,2.32ZM211.76,21.55h20.27c-.9-7.04-4.07-10.39-9.68-10.39-4.84,0-9.55,2.91-10.59,10.39Z"/><path class="j" d="M244.81,17.1v24.86h-4.52V7.74h3.55l.9,5.55c3.36-4.13,8.33-6.2,13.3-6.2l.19,4.33c-4.65,0-9.94,2.39-13.43,5.68Z"/></svg>